<mxfile host="app.diagrams.net" agent="Mozilla/5.0 (Windows NT 10.0; Win64; x64) AppleWebKit/537.36 (KHTML, like Gecko) Chrome/120.0.0.0 Safari/537.36 Edg/120.0.0.0" version="26.0.14" pages="2">
  <diagram name="Page-1" id="MjYs1Di-v3y3v9cgYZag">
    <mxGraphModel dx="1166" dy="931" grid="0" gridSize="10" guides="1" tooltips="1" connect="1" arrows="1" fold="1" page="0" pageScale="1" pageWidth="850" pageHeight="1100" math="0" shadow="0">
      <root>
        <mxCell id="0" />
        <mxCell id="1" parent="0" />
        <mxCell id="cd5pydmoZgt-4v8vJfUz-6" value="Meminjam" style="shape=rhombus;perimeter=rhombusPerimeter;whiteSpace=wrap;html=1;align=center;" vertex="1" parent="1">
          <mxGeometry x="210" y="59" width="120" height="60" as="geometry" />
        </mxCell>
        <mxCell id="cd5pydmoZgt-4v8vJfUz-7" value="Siswa" style="rounded=1;arcSize=10;whiteSpace=wrap;html=1;align=center;" vertex="1" parent="1">
          <mxGeometry x="-179" y="69" width="100" height="40" as="geometry" />
        </mxCell>
        <mxCell id="cd5pydmoZgt-4v8vJfUz-8" value="Buku" style="rounded=1;arcSize=10;whiteSpace=wrap;html=1;align=center;" vertex="1" parent="1">
          <mxGeometry x="600" y="69" width="100" height="40" as="geometry" />
        </mxCell>
        <mxCell id="cd5pydmoZgt-4v8vJfUz-9" value="Petugas" style="rounded=1;arcSize=10;whiteSpace=wrap;html=1;align=center;" vertex="1" parent="1">
          <mxGeometry x="223" y="457" width="100" height="40" as="geometry" />
        </mxCell>
        <mxCell id="cd5pydmoZgt-4v8vJfUz-10" value="Meminjam" style="shape=rhombus;perimeter=rhombusPerimeter;whiteSpace=wrap;html=1;align=center;" vertex="1" parent="1">
          <mxGeometry x="596" y="439" width="120" height="60" as="geometry" />
        </mxCell>
        <mxCell id="cd5pydmoZgt-4v8vJfUz-11" value="Nama" style="ellipse;whiteSpace=wrap;html=1;align=center;fontStyle=4;" vertex="1" parent="1">
          <mxGeometry x="-174" y="-18" width="100" height="40" as="geometry" />
        </mxCell>
        <mxCell id="cd5pydmoZgt-4v8vJfUz-12" value="Kelas" style="ellipse;whiteSpace=wrap;html=1;align=center;fontStyle=4;" vertex="1" parent="1">
          <mxGeometry x="-74" y="15" width="100" height="40" as="geometry" />
        </mxCell>
        <mxCell id="cd5pydmoZgt-4v8vJfUz-13" value="NIS" style="ellipse;whiteSpace=wrap;html=1;align=center;fontStyle=4;" vertex="1" parent="1">
          <mxGeometry x="-283" y="15" width="100" height="40" as="geometry" />
        </mxCell>
        <mxCell id="cd5pydmoZgt-4v8vJfUz-14" value="Waktu pinjam" style="ellipse;whiteSpace=wrap;html=1;align=center;fontStyle=4;" vertex="1" parent="1">
          <mxGeometry x="355" y="35" width="100" height="40" as="geometry" />
        </mxCell>
        <mxCell id="cd5pydmoZgt-4v8vJfUz-15" value="NIS" style="ellipse;whiteSpace=wrap;html=1;align=center;fontStyle=4;" vertex="1" parent="1">
          <mxGeometry x="344" y="-25" width="100" height="40" as="geometry" />
        </mxCell>
        <mxCell id="cd5pydmoZgt-4v8vJfUz-16" value="Id.petugas" style="ellipse;whiteSpace=wrap;html=1;align=center;fontStyle=4;" vertex="1" parent="1">
          <mxGeometry x="101" y="22" width="100" height="40" as="geometry" />
        </mxCell>
        <mxCell id="cd5pydmoZgt-4v8vJfUz-17" value="Id.peminjaman" style="ellipse;whiteSpace=wrap;html=1;align=center;fontStyle=4;" vertex="1" parent="1">
          <mxGeometry x="152" y="-27" width="100" height="40" as="geometry" />
        </mxCell>
        <mxCell id="cd5pydmoZgt-4v8vJfUz-18" value="Id.buku" style="ellipse;whiteSpace=wrap;html=1;align=center;fontStyle=4;" vertex="1" parent="1">
          <mxGeometry x="252" y="-58" width="100" height="40" as="geometry" />
        </mxCell>
        <mxCell id="cd5pydmoZgt-4v8vJfUz-19" value="Id.buku" style="ellipse;whiteSpace=wrap;html=1;align=center;fontStyle=4;" vertex="1" parent="1">
          <mxGeometry x="504" y="-31" width="100" height="40" as="geometry" />
        </mxCell>
        <mxCell id="cd5pydmoZgt-4v8vJfUz-20" value="Judul" style="ellipse;whiteSpace=wrap;html=1;align=center;fontStyle=4;" vertex="1" parent="1">
          <mxGeometry x="604" y="-71" width="100" height="40" as="geometry" />
        </mxCell>
        <mxCell id="cd5pydmoZgt-4v8vJfUz-21" value="Jenis" style="ellipse;whiteSpace=wrap;html=1;align=center;fontStyle=4;" vertex="1" parent="1">
          <mxGeometry x="698" y="-52" width="100" height="40" as="geometry" />
        </mxCell>
        <mxCell id="cd5pydmoZgt-4v8vJfUz-22" value="Penerbit" style="ellipse;whiteSpace=wrap;html=1;align=center;fontStyle=4;" vertex="1" parent="1">
          <mxGeometry x="760" y="-12" width="100" height="40" as="geometry" />
        </mxCell>
        <mxCell id="cd5pydmoZgt-4v8vJfUz-23" value="Jumlah" style="ellipse;whiteSpace=wrap;html=1;align=center;fontStyle=4;" vertex="1" parent="1">
          <mxGeometry x="772" y="38" width="100" height="40" as="geometry" />
        </mxCell>
        <mxCell id="cd5pydmoZgt-4v8vJfUz-24" value="Id.petugas" style="ellipse;whiteSpace=wrap;html=1;align=center;fontStyle=4;" vertex="1" parent="1">
          <mxGeometry x="765" y="109" width="100" height="40" as="geometry" />
        </mxCell>
        <mxCell id="cd5pydmoZgt-4v8vJfUz-25" value="No_HP" style="ellipse;whiteSpace=wrap;html=1;align=center;fontStyle=4;" vertex="1" parent="1">
          <mxGeometry x="46" y="497" width="100" height="40" as="geometry" />
        </mxCell>
        <mxCell id="cd5pydmoZgt-4v8vJfUz-26" value="Id.petugas" style="ellipse;whiteSpace=wrap;html=1;align=center;fontStyle=4;" vertex="1" parent="1">
          <mxGeometry x="37" y="371" width="100" height="40" as="geometry" />
        </mxCell>
        <mxCell id="cd5pydmoZgt-4v8vJfUz-27" value="Nama" style="ellipse;whiteSpace=wrap;html=1;align=center;fontStyle=4;" vertex="1" parent="1">
          <mxGeometry x="29" y="439" width="100" height="40" as="geometry" />
        </mxCell>
        <mxCell id="cd5pydmoZgt-4v8vJfUz-28" value="" style="endArrow=none;html=1;rounded=0;dashed=1;dashPattern=1 2;fontSize=12;startSize=8;endSize=8;curved=1;entryX=0;entryY=0.5;entryDx=0;entryDy=0;exitX=1;exitY=0.5;exitDx=0;exitDy=0;" edge="1" parent="1" source="cd5pydmoZgt-4v8vJfUz-6" target="cd5pydmoZgt-4v8vJfUz-8">
          <mxGeometry relative="1" as="geometry">
            <mxPoint x="398" y="291" as="sourcePoint" />
            <mxPoint x="558" y="291" as="targetPoint" />
          </mxGeometry>
        </mxCell>
        <mxCell id="cd5pydmoZgt-4v8vJfUz-29" value="N" style="resizable=0;html=1;whiteSpace=wrap;align=right;verticalAlign=bottom;" connectable="0" vertex="1" parent="cd5pydmoZgt-4v8vJfUz-28">
          <mxGeometry x="1" relative="1" as="geometry" />
        </mxCell>
        <mxCell id="cd5pydmoZgt-4v8vJfUz-36" value="" style="endArrow=none;html=1;rounded=0;fontSize=12;startSize=8;endSize=8;curved=1;entryX=0;entryY=0.75;entryDx=0;entryDy=0;exitX=1;exitY=0.5;exitDx=0;exitDy=0;" edge="1" parent="1" source="cd5pydmoZgt-4v8vJfUz-27" target="cd5pydmoZgt-4v8vJfUz-9">
          <mxGeometry relative="1" as="geometry">
            <mxPoint x="200" y="340" as="sourcePoint" />
            <mxPoint x="229" y="366" as="targetPoint" />
          </mxGeometry>
        </mxCell>
        <mxCell id="cd5pydmoZgt-4v8vJfUz-37" value="" style="endArrow=none;html=1;rounded=0;fontSize=12;startSize=8;endSize=8;curved=1;exitX=0.72;exitY=0.925;exitDx=0;exitDy=0;exitPerimeter=0;entryX=0;entryY=0.25;entryDx=0;entryDy=0;" edge="1" parent="1" source="cd5pydmoZgt-4v8vJfUz-26" target="cd5pydmoZgt-4v8vJfUz-9">
          <mxGeometry relative="1" as="geometry">
            <mxPoint x="235" y="311" as="sourcePoint" />
            <mxPoint x="273" y="362" as="targetPoint" />
          </mxGeometry>
        </mxCell>
        <mxCell id="cd5pydmoZgt-4v8vJfUz-38" value="" style="endArrow=none;html=1;rounded=0;fontSize=12;startSize=8;endSize=8;curved=1;exitX=1;exitY=0.5;exitDx=0;exitDy=0;entryX=0.08;entryY=0.925;entryDx=0;entryDy=0;entryPerimeter=0;" edge="1" parent="1" source="cd5pydmoZgt-4v8vJfUz-25" target="cd5pydmoZgt-4v8vJfUz-9">
          <mxGeometry relative="1" as="geometry">
            <mxPoint x="236" y="452" as="sourcePoint" />
            <mxPoint x="221" y="470" as="targetPoint" />
          </mxGeometry>
        </mxCell>
        <mxCell id="cd5pydmoZgt-4v8vJfUz-39" value="" style="endArrow=none;html=1;rounded=0;fontSize=12;startSize=8;endSize=8;curved=1;exitX=0.01;exitY=0.725;exitDx=0;exitDy=0;exitPerimeter=0;entryX=1;entryY=0.5;entryDx=0;entryDy=0;" edge="1" parent="1" source="cd5pydmoZgt-4v8vJfUz-14" target="cd5pydmoZgt-4v8vJfUz-6">
          <mxGeometry relative="1" as="geometry">
            <mxPoint x="350" y="124" as="sourcePoint" />
            <mxPoint x="510" y="124" as="targetPoint" />
            <Array as="points" />
          </mxGeometry>
        </mxCell>
        <mxCell id="cd5pydmoZgt-4v8vJfUz-40" value="" style="endArrow=none;html=1;rounded=0;fontSize=12;startSize=8;endSize=8;curved=1;exitX=0.5;exitY=1;exitDx=0;exitDy=0;entryX=0.4;entryY=0.083;entryDx=0;entryDy=0;entryPerimeter=0;" edge="1" parent="1" source="cd5pydmoZgt-4v8vJfUz-17" target="cd5pydmoZgt-4v8vJfUz-6">
          <mxGeometry relative="1" as="geometry">
            <mxPoint x="507" y="157" as="sourcePoint" />
            <mxPoint x="248" y="69" as="targetPoint" />
          </mxGeometry>
        </mxCell>
        <mxCell id="cd5pydmoZgt-4v8vJfUz-41" value="" style="endArrow=none;html=1;rounded=0;fontSize=12;startSize=8;endSize=8;curved=1;exitX=0.37;exitY=0.95;exitDx=0;exitDy=0;exitPerimeter=0;entryX=0.5;entryY=0;entryDx=0;entryDy=0;" edge="1" parent="1" source="cd5pydmoZgt-4v8vJfUz-18" target="cd5pydmoZgt-4v8vJfUz-6">
          <mxGeometry relative="1" as="geometry">
            <mxPoint x="350" y="124" as="sourcePoint" />
            <mxPoint x="510" y="124" as="targetPoint" />
          </mxGeometry>
        </mxCell>
        <mxCell id="cd5pydmoZgt-4v8vJfUz-42" value="" style="endArrow=none;html=1;rounded=0;fontSize=12;startSize=8;endSize=8;curved=1;entryX=0.658;entryY=0.133;entryDx=0;entryDy=0;entryPerimeter=0;exitX=0;exitY=0.5;exitDx=0;exitDy=0;" edge="1" parent="1" source="cd5pydmoZgt-4v8vJfUz-15" target="cd5pydmoZgt-4v8vJfUz-6">
          <mxGeometry relative="1" as="geometry">
            <mxPoint x="346" y="-2" as="sourcePoint" />
            <mxPoint x="510" y="124" as="targetPoint" />
          </mxGeometry>
        </mxCell>
        <mxCell id="cd5pydmoZgt-4v8vJfUz-43" value="" style="endArrow=none;html=1;rounded=0;fontSize=12;startSize=8;endSize=8;curved=1;exitX=1;exitY=1;exitDx=0;exitDy=0;entryX=0.317;entryY=0.183;entryDx=0;entryDy=0;entryPerimeter=0;" edge="1" parent="1" source="cd5pydmoZgt-4v8vJfUz-16" target="cd5pydmoZgt-4v8vJfUz-6">
          <mxGeometry relative="1" as="geometry">
            <mxPoint x="191" y="-55" as="sourcePoint" />
            <mxPoint x="351" y="-55" as="targetPoint" />
          </mxGeometry>
        </mxCell>
        <mxCell id="cd5pydmoZgt-4v8vJfUz-48" value="" style="endArrow=none;html=1;rounded=0;fontSize=12;startSize=8;endSize=8;curved=1;exitX=1;exitY=1;exitDx=0;exitDy=0;entryX=0.25;entryY=0;entryDx=0;entryDy=0;" edge="1" parent="1" source="cd5pydmoZgt-4v8vJfUz-19" target="cd5pydmoZgt-4v8vJfUz-8">
          <mxGeometry relative="1" as="geometry">
            <mxPoint x="587" y="111" as="sourcePoint" />
            <mxPoint x="747" y="111" as="targetPoint" />
          </mxGeometry>
        </mxCell>
        <mxCell id="cd5pydmoZgt-4v8vJfUz-50" value="" style="endArrow=none;html=1;rounded=0;fontSize=12;startSize=8;endSize=8;curved=1;exitX=0.44;exitY=0.925;exitDx=0;exitDy=0;entryX=0.39;entryY=0.1;entryDx=0;entryDy=0;entryPerimeter=0;exitPerimeter=0;" edge="1" parent="1" source="cd5pydmoZgt-4v8vJfUz-20" target="cd5pydmoZgt-4v8vJfUz-8">
          <mxGeometry relative="1" as="geometry">
            <mxPoint x="648" y="-31" as="sourcePoint" />
            <mxPoint x="684" y="35" as="targetPoint" />
          </mxGeometry>
        </mxCell>
        <mxCell id="cd5pydmoZgt-4v8vJfUz-51" value="" style="endArrow=none;html=1;rounded=0;fontSize=12;startSize=8;endSize=8;curved=1;exitX=0;exitY=1;exitDx=0;exitDy=0;entryX=0.65;entryY=0.05;entryDx=0;entryDy=0;entryPerimeter=0;" edge="1" parent="1" source="cd5pydmoZgt-4v8vJfUz-21" target="cd5pydmoZgt-4v8vJfUz-8">
          <mxGeometry relative="1" as="geometry">
            <mxPoint x="658" y="-24" as="sourcePoint" />
            <mxPoint x="649" y="83" as="targetPoint" />
          </mxGeometry>
        </mxCell>
        <mxCell id="cd5pydmoZgt-4v8vJfUz-52" value="" style="endArrow=none;html=1;rounded=0;fontSize=12;startSize=8;endSize=8;curved=1;exitX=0;exitY=0.5;exitDx=0;exitDy=0;entryX=1;entryY=0;entryDx=0;entryDy=0;" edge="1" parent="1" source="cd5pydmoZgt-4v8vJfUz-22" target="cd5pydmoZgt-4v8vJfUz-8">
          <mxGeometry relative="1" as="geometry">
            <mxPoint x="723" y="-8" as="sourcePoint" />
            <mxPoint x="675" y="81" as="targetPoint" />
          </mxGeometry>
        </mxCell>
        <mxCell id="cd5pydmoZgt-4v8vJfUz-53" value="" style="endArrow=none;html=1;rounded=0;fontSize=12;startSize=8;endSize=8;curved=1;exitX=0;exitY=0.5;exitDx=0;exitDy=0;entryX=1;entryY=0.25;entryDx=0;entryDy=0;" edge="1" parent="1" source="cd5pydmoZgt-4v8vJfUz-23" target="cd5pydmoZgt-4v8vJfUz-8">
          <mxGeometry relative="1" as="geometry">
            <mxPoint x="770" y="18" as="sourcePoint" />
            <mxPoint x="710" y="79" as="targetPoint" />
          </mxGeometry>
        </mxCell>
        <mxCell id="cd5pydmoZgt-4v8vJfUz-54" value="" style="endArrow=none;html=1;rounded=0;fontSize=12;startSize=8;endSize=8;curved=1;exitX=-0.01;exitY=0.325;exitDx=0;exitDy=0;entryX=1;entryY=1;entryDx=0;entryDy=0;exitPerimeter=0;" edge="1" parent="1" source="cd5pydmoZgt-4v8vJfUz-24" target="cd5pydmoZgt-4v8vJfUz-8">
          <mxGeometry relative="1" as="geometry">
            <mxPoint x="782" y="68" as="sourcePoint" />
            <mxPoint x="710" y="89" as="targetPoint" />
          </mxGeometry>
        </mxCell>
        <mxCell id="cd5pydmoZgt-4v8vJfUz-55" value="" style="endArrow=none;html=1;rounded=0;fontSize=12;startSize=8;endSize=8;curved=1;entryX=0.25;entryY=0;entryDx=0;entryDy=0;" edge="1" parent="1" source="cd5pydmoZgt-4v8vJfUz-13" target="cd5pydmoZgt-4v8vJfUz-7">
          <mxGeometry relative="1" as="geometry">
            <mxPoint x="196" y="66" as="sourcePoint" />
            <mxPoint x="258" y="80" as="targetPoint" />
          </mxGeometry>
        </mxCell>
        <mxCell id="cd5pydmoZgt-4v8vJfUz-56" value="" style="endArrow=none;html=1;rounded=0;fontSize=12;startSize=8;endSize=8;curved=1;entryX=0.57;entryY=0.05;entryDx=0;entryDy=0;exitX=0.5;exitY=1;exitDx=0;exitDy=0;entryPerimeter=0;" edge="1" parent="1" source="cd5pydmoZgt-4v8vJfUz-11" target="cd5pydmoZgt-4v8vJfUz-7">
          <mxGeometry relative="1" as="geometry">
            <mxPoint x="-189" y="60" as="sourcePoint" />
            <mxPoint x="-144" y="79" as="targetPoint" />
          </mxGeometry>
        </mxCell>
        <mxCell id="cd5pydmoZgt-4v8vJfUz-57" value="" style="endArrow=none;html=1;rounded=0;fontSize=12;startSize=8;endSize=8;curved=1;entryX=1;entryY=0.25;entryDx=0;entryDy=0;exitX=0;exitY=1;exitDx=0;exitDy=0;" edge="1" parent="1" source="cd5pydmoZgt-4v8vJfUz-12" target="cd5pydmoZgt-4v8vJfUz-7">
          <mxGeometry relative="1" as="geometry">
            <mxPoint x="-114" y="32" as="sourcePoint" />
            <mxPoint x="-112" y="81" as="targetPoint" />
          </mxGeometry>
        </mxCell>
        <mxCell id="cd5pydmoZgt-4v8vJfUz-61" value="" style="endArrow=none;html=1;rounded=0;dashed=1;dashPattern=1 2;fontSize=12;startSize=8;endSize=8;curved=1;exitX=0;exitY=0.5;exitDx=0;exitDy=0;entryX=1;entryY=0.5;entryDx=0;entryDy=0;" edge="1" parent="1" source="cd5pydmoZgt-4v8vJfUz-10" target="cd5pydmoZgt-4v8vJfUz-9">
          <mxGeometry relative="1" as="geometry">
            <mxPoint x="355" y="358" as="sourcePoint" />
            <mxPoint x="491" y="284" as="targetPoint" />
          </mxGeometry>
        </mxCell>
        <mxCell id="cd5pydmoZgt-4v8vJfUz-62" value="1" style="resizable=0;html=1;whiteSpace=wrap;align=right;verticalAlign=bottom;" connectable="0" vertex="1" parent="cd5pydmoZgt-4v8vJfUz-61">
          <mxGeometry x="1" relative="1" as="geometry" />
        </mxCell>
        <mxCell id="cd5pydmoZgt-4v8vJfUz-63" value="" style="endArrow=none;html=1;rounded=0;dashed=1;dashPattern=1 2;fontSize=12;startSize=8;endSize=8;curved=1;entryX=0.5;entryY=1;entryDx=0;entryDy=0;exitX=0.5;exitY=0;exitDx=0;exitDy=0;" edge="1" parent="1" source="cd5pydmoZgt-4v8vJfUz-10" target="cd5pydmoZgt-4v8vJfUz-8">
          <mxGeometry relative="1" as="geometry">
            <mxPoint x="657" y="403" as="sourcePoint" />
            <mxPoint x="740" y="283" as="targetPoint" />
          </mxGeometry>
        </mxCell>
        <mxCell id="cd5pydmoZgt-4v8vJfUz-64" value="N" style="resizable=0;html=1;whiteSpace=wrap;align=right;verticalAlign=bottom;" connectable="0" vertex="1" parent="cd5pydmoZgt-4v8vJfUz-63">
          <mxGeometry x="1" relative="1" as="geometry" />
        </mxCell>
        <mxCell id="cd5pydmoZgt-4v8vJfUz-65" value="Mengonfirmasi" style="shape=rhombus;perimeter=rhombusPerimeter;whiteSpace=wrap;html=1;align=center;" vertex="1" parent="1">
          <mxGeometry x="211" y="251" width="120" height="60" as="geometry" />
        </mxCell>
        <mxCell id="cd5pydmoZgt-4v8vJfUz-66" value="" style="endArrow=none;html=1;rounded=0;dashed=1;dashPattern=1 2;fontSize=12;startSize=8;endSize=8;curved=1;entryX=0.5;entryY=1;entryDx=0;entryDy=0;exitX=0.5;exitY=0;exitDx=0;exitDy=0;" edge="1" parent="1" source="cd5pydmoZgt-4v8vJfUz-65" target="cd5pydmoZgt-4v8vJfUz-6">
          <mxGeometry relative="1" as="geometry">
            <mxPoint x="-6" y="294" as="sourcePoint" />
            <mxPoint x="154" y="294" as="targetPoint" />
          </mxGeometry>
        </mxCell>
        <mxCell id="cd5pydmoZgt-4v8vJfUz-67" value="N" style="resizable=0;html=1;whiteSpace=wrap;align=right;verticalAlign=bottom;" connectable="0" vertex="1" parent="cd5pydmoZgt-4v8vJfUz-66">
          <mxGeometry x="1" relative="1" as="geometry" />
        </mxCell>
        <mxCell id="cd5pydmoZgt-4v8vJfUz-68" value="" style="endArrow=none;html=1;rounded=0;dashed=1;dashPattern=1 2;fontSize=12;startSize=8;endSize=8;curved=1;entryX=0.5;entryY=0;entryDx=0;entryDy=0;exitX=0.5;exitY=1;exitDx=0;exitDy=0;" edge="1" parent="1" source="cd5pydmoZgt-4v8vJfUz-65" target="cd5pydmoZgt-4v8vJfUz-9">
          <mxGeometry relative="1" as="geometry">
            <mxPoint x="-6" y="294" as="sourcePoint" />
            <mxPoint x="154" y="294" as="targetPoint" />
          </mxGeometry>
        </mxCell>
        <mxCell id="cd5pydmoZgt-4v8vJfUz-69" value="1" style="resizable=0;html=1;whiteSpace=wrap;align=right;verticalAlign=bottom;" connectable="0" vertex="1" parent="cd5pydmoZgt-4v8vJfUz-68">
          <mxGeometry x="1" relative="1" as="geometry" />
        </mxCell>
        <mxCell id="cd5pydmoZgt-4v8vJfUz-70" value="" style="endArrow=none;html=1;rounded=0;dashed=1;dashPattern=1 2;fontSize=12;startSize=8;endSize=8;curved=1;entryX=1;entryY=0.5;entryDx=0;entryDy=0;exitX=0;exitY=0.5;exitDx=0;exitDy=0;" edge="1" parent="1" source="cd5pydmoZgt-4v8vJfUz-6" target="cd5pydmoZgt-4v8vJfUz-7">
          <mxGeometry relative="1" as="geometry">
            <mxPoint x="13" y="225" as="sourcePoint" />
            <mxPoint x="173" y="225" as="targetPoint" />
          </mxGeometry>
        </mxCell>
        <mxCell id="cd5pydmoZgt-4v8vJfUz-71" value="N" style="resizable=0;html=1;whiteSpace=wrap;align=right;verticalAlign=bottom;" connectable="0" vertex="1" parent="cd5pydmoZgt-4v8vJfUz-70">
          <mxGeometry x="1" relative="1" as="geometry" />
        </mxCell>
      </root>
    </mxGraphModel>
  </diagram>
  <diagram id="UI4QIBCCwnmqep_vkz51" name="Page-2">
    <mxGraphModel dx="3488" dy="2124" grid="0" gridSize="10" guides="1" tooltips="1" connect="1" arrows="1" fold="1" page="0" pageScale="1" pageWidth="850" pageHeight="1100" math="0" shadow="0">
      <root>
        <mxCell id="0" />
        <mxCell id="1" parent="0" />
        <mxCell id="linHKC7ylbopi5ncw5sV-2" value="Admin" style="rounded=1;arcSize=10;whiteSpace=wrap;html=1;align=center;" vertex="1" parent="1">
          <mxGeometry x="1068" y="259" width="100" height="40" as="geometry" />
        </mxCell>
        <mxCell id="linHKC7ylbopi5ncw5sV-3" value="pembayaran" style="rounded=1;arcSize=10;whiteSpace=wrap;html=1;align=center;" vertex="1" parent="1">
          <mxGeometry x="-22" y="1182" width="132" height="79" as="geometry" />
        </mxCell>
        <mxCell id="linHKC7ylbopi5ncw5sV-4" value="detail" style="rounded=1;arcSize=10;whiteSpace=wrap;html=1;align=center;" vertex="1" parent="1">
          <mxGeometry x="556" y="669" width="141" height="71" as="geometry" />
        </mxCell>
        <mxCell id="linHKC7ylbopi5ncw5sV-5" value="pesanan" style="rounded=1;arcSize=10;whiteSpace=wrap;html=1;align=center;" vertex="1" parent="1">
          <mxGeometry x="-20" y="722" width="131" height="79" as="geometry" />
        </mxCell>
        <mxCell id="linHKC7ylbopi5ncw5sV-6" value="seblak" style="rounded=1;arcSize=10;whiteSpace=wrap;html=1;align=center;" vertex="1" parent="1">
          <mxGeometry x="554" y="234" width="128" height="73" as="geometry" />
        </mxCell>
        <mxCell id="linHKC7ylbopi5ncw5sV-7" value="pelanggan" style="rounded=1;arcSize=10;whiteSpace=wrap;html=1;align=center;" vertex="1" parent="1">
          <mxGeometry x="-21" y="233" width="116" height="72" as="geometry" />
        </mxCell>
        <mxCell id="linHKC7ylbopi5ncw5sV-9" value="password" style="ellipse;whiteSpace=wrap;html=1;align=center;fontStyle=4;" vertex="1" parent="1">
          <mxGeometry x="-199.5" y="155" width="108" height="54" as="geometry" />
        </mxCell>
        <mxCell id="linHKC7ylbopi5ncw5sV-10" value="no_hp" style="ellipse;whiteSpace=wrap;html=1;align=center;fontStyle=4;" vertex="1" parent="1">
          <mxGeometry x="-126" y="103" width="105" height="45" as="geometry" />
        </mxCell>
        <mxCell id="linHKC7ylbopi5ncw5sV-11" value="nama" style="ellipse;whiteSpace=wrap;html=1;align=center;fontStyle=4;" vertex="1" parent="1">
          <mxGeometry x="-161" y="294" width="114" height="52" as="geometry" />
        </mxCell>
        <mxCell id="linHKC7ylbopi5ncw5sV-12" value="email" style="ellipse;whiteSpace=wrap;html=1;align=center;fontStyle=4;" vertex="1" parent="1">
          <mxGeometry x="-185" y="232" width="111" height="41" as="geometry" />
        </mxCell>
        <mxCell id="linHKC7ylbopi5ncw5sV-13" value="jumlah" style="ellipse;whiteSpace=wrap;html=1;align=center;fontStyle=4;" vertex="1" parent="1">
          <mxGeometry x="832" y="614" width="100" height="40" as="geometry" />
        </mxCell>
        <mxCell id="linHKC7ylbopi5ncw5sV-14" value="alamat" style="ellipse;whiteSpace=wrap;html=1;align=center;fontStyle=4;" vertex="1" parent="1">
          <mxGeometry x="-5" y="117" width="118" height="49" as="geometry" />
        </mxCell>
        <mxCell id="linHKC7ylbopi5ncw5sV-15" value="tingkat_pedas" style="ellipse;whiteSpace=wrap;html=1;align=center;fontStyle=4;" vertex="1" parent="1">
          <mxGeometry x="454" y="121.5" width="100" height="40" as="geometry" />
        </mxCell>
        <mxCell id="linHKC7ylbopi5ncw5sV-16" value="id_seblak" style="ellipse;whiteSpace=wrap;html=1;align=center;fontStyle=4;" vertex="1" parent="1">
          <mxGeometry x="813" y="549" width="100" height="40" as="geometry" />
        </mxCell>
        <mxCell id="linHKC7ylbopi5ncw5sV-17" value="nama_seblak" style="ellipse;whiteSpace=wrap;html=1;align=center;fontStyle=4;" vertex="1" parent="1">
          <mxGeometry x="532" y="68" width="100" height="40" as="geometry" />
        </mxCell>
        <mxCell id="linHKC7ylbopi5ncw5sV-18" value="total_harga" style="ellipse;whiteSpace=wrap;html=1;align=center;fontStyle=4;" vertex="1" parent="1">
          <mxGeometry x="-271" y="573" width="151" height="61" as="geometry" />
        </mxCell>
        <mxCell id="linHKC7ylbopi5ncw5sV-19" value="harga" style="ellipse;whiteSpace=wrap;html=1;align=center;fontStyle=4;" vertex="1" parent="1">
          <mxGeometry x="640" y="59" width="100" height="40" as="geometry" />
        </mxCell>
        <mxCell id="linHKC7ylbopi5ncw5sV-21" value="password" style="ellipse;whiteSpace=wrap;html=1;align=center;fontStyle=4;" vertex="1" parent="1">
          <mxGeometry x="1327" y="319" width="100" height="40" as="geometry" />
        </mxCell>
        <mxCell id="linHKC7ylbopi5ncw5sV-22" value="id_pemesanan" style="ellipse;whiteSpace=wrap;html=1;align=center;fontStyle=4;" vertex="1" parent="1">
          <mxGeometry x="-258" y="1078" width="100" height="40" as="geometry" />
        </mxCell>
        <mxCell id="linHKC7ylbopi5ncw5sV-23" value="tgl_pembayaran" style="ellipse;whiteSpace=wrap;html=1;align=center;fontStyle=4;" vertex="1" parent="1">
          <mxGeometry x="-258" y="1307" width="100" height="40" as="geometry" />
        </mxCell>
        <mxCell id="linHKC7ylbopi5ncw5sV-24" value="metode_pembayaran" style="ellipse;whiteSpace=wrap;html=1;align=center;fontStyle=4;" vertex="1" parent="1">
          <mxGeometry x="-305" y="1151" width="125" height="55" as="geometry" />
        </mxCell>
        <mxCell id="linHKC7ylbopi5ncw5sV-25" value="status_pembayaran" style="ellipse;whiteSpace=wrap;html=1;align=center;fontStyle=4;" vertex="1" parent="1">
          <mxGeometry x="-309" y="1236" width="123" height="56" as="geometry" />
        </mxCell>
        <mxCell id="linHKC7ylbopi5ncw5sV-26" value="id_pemesanan" style="ellipse;whiteSpace=wrap;html=1;align=center;fontStyle=4;" vertex="1" parent="1">
          <mxGeometry x="825" y="761" width="100" height="40" as="geometry" />
        </mxCell>
        <mxCell id="linHKC7ylbopi5ncw5sV-27" value="subtotal" style="ellipse;whiteSpace=wrap;html=1;align=center;fontStyle=4;" vertex="1" parent="1">
          <mxGeometry x="846" y="688" width="100" height="40" as="geometry" />
        </mxCell>
        <mxCell id="linHKC7ylbopi5ncw5sV-28" value="status_pesanan" style="ellipse;whiteSpace=wrap;html=1;align=center;fontStyle=4;" vertex="1" parent="1">
          <mxGeometry x="-279" y="811" width="133" height="54" as="geometry" />
        </mxCell>
        <mxCell id="linHKC7ylbopi5ncw5sV-29" value="id_pelanggan" style="ellipse;whiteSpace=wrap;html=1;align=center;fontStyle=4;" vertex="1" parent="1">
          <mxGeometry x="-286" y="652.5" width="131" height="51" as="geometry" />
        </mxCell>
        <mxCell id="linHKC7ylbopi5ncw5sV-30" value="tanggal_pesanan" style="ellipse;whiteSpace=wrap;html=1;align=center;fontStyle=4;" vertex="1" parent="1">
          <mxGeometry x="-271" y="885" width="133" height="54" as="geometry" />
        </mxCell>
        <mxCell id="linHKC7ylbopi5ncw5sV-31" value="id_pesanan" style="ellipse;whiteSpace=wrap;html=1;align=center;fontStyle=4;" vertex="1" parent="1">
          <mxGeometry x="-286" y="728" width="131" height="62" as="geometry" />
        </mxCell>
        <mxCell id="linHKC7ylbopi5ncw5sV-33" value="nama_admin" style="ellipse;whiteSpace=wrap;html=1;align=center;fontStyle=4;" vertex="1" parent="1">
          <mxGeometry x="1268" y="160" width="120" height="54" as="geometry" />
        </mxCell>
        <mxCell id="linHKC7ylbopi5ncw5sV-34" value="email" style="ellipse;whiteSpace=wrap;html=1;align=center;fontStyle=4;" vertex="1" parent="1">
          <mxGeometry x="1301" y="246" width="100" height="40" as="geometry" />
        </mxCell>
        <mxCell id="linHKC7ylbopi5ncw5sV-36" value="" style="endArrow=none;html=1;rounded=0;fontSize=12;startSize=8;endSize=8;curved=1;exitX=1;exitY=0.5;exitDx=0;exitDy=0;entryX=0;entryY=1;entryDx=0;entryDy=0;" edge="1" parent="1" source="linHKC7ylbopi5ncw5sV-11" target="linHKC7ylbopi5ncw5sV-7">
          <mxGeometry relative="1" as="geometry">
            <mxPoint x="-163" y="278" as="sourcePoint" />
            <mxPoint x="-3" y="278" as="targetPoint" />
            <Array as="points" />
          </mxGeometry>
        </mxCell>
        <mxCell id="linHKC7ylbopi5ncw5sV-40" value="" style="endArrow=none;html=1;rounded=0;fontSize=12;startSize=8;endSize=8;curved=1;exitX=1;exitY=1;exitDx=0;exitDy=0;entryX=0;entryY=0;entryDx=0;entryDy=0;" edge="1" parent="1" source="linHKC7ylbopi5ncw5sV-9" target="linHKC7ylbopi5ncw5sV-7">
          <mxGeometry relative="1" as="geometry">
            <mxPoint x="-79" y="205" as="sourcePoint" />
            <mxPoint x="-15" y="228" as="targetPoint" />
            <Array as="points">
              <mxPoint x="-46" y="217" />
            </Array>
          </mxGeometry>
        </mxCell>
        <mxCell id="linHKC7ylbopi5ncw5sV-41" value="" style="endArrow=none;html=1;rounded=0;fontSize=12;startSize=8;endSize=8;curved=1;exitX=1;exitY=0.5;exitDx=0;exitDy=0;entryX=0;entryY=0.5;entryDx=0;entryDy=0;" edge="1" parent="1" source="linHKC7ylbopi5ncw5sV-12" target="linHKC7ylbopi5ncw5sV-7">
          <mxGeometry relative="1" as="geometry">
            <mxPoint x="-163" y="278" as="sourcePoint" />
            <mxPoint x="-3" y="278" as="targetPoint" />
          </mxGeometry>
        </mxCell>
        <mxCell id="linHKC7ylbopi5ncw5sV-42" value="" style="endArrow=none;html=1;rounded=0;fontSize=12;startSize=8;endSize=8;curved=1;entryX=0.375;entryY=0.956;entryDx=0;entryDy=0;entryPerimeter=0;exitX=0.71;exitY=0.075;exitDx=0;exitDy=0;exitPerimeter=0;" edge="1" parent="1" source="linHKC7ylbopi5ncw5sV-7" target="linHKC7ylbopi5ncw5sV-14">
          <mxGeometry relative="1" as="geometry">
            <mxPoint x="54" y="233" as="sourcePoint" />
            <mxPoint x="214" y="233" as="targetPoint" />
          </mxGeometry>
        </mxCell>
        <mxCell id="linHKC7ylbopi5ncw5sV-43" value="" style="endArrow=none;html=1;rounded=0;fontSize=12;startSize=8;endSize=8;curved=1;exitX=0.5;exitY=1;exitDx=0;exitDy=0;entryX=0.33;entryY=0.093;entryDx=0;entryDy=0;entryPerimeter=0;" edge="1" parent="1" source="linHKC7ylbopi5ncw5sV-10" target="linHKC7ylbopi5ncw5sV-7">
          <mxGeometry relative="1" as="geometry">
            <mxPoint x="-51" y="224.41" as="sourcePoint" />
            <mxPoint x="10" y="231" as="targetPoint" />
          </mxGeometry>
        </mxCell>
        <mxCell id="linHKC7ylbopi5ncw5sV-46" value="" style="endArrow=none;html=1;rounded=0;fontSize=12;startSize=8;endSize=8;curved=1;entryX=1;entryY=1;entryDx=0;entryDy=0;exitX=0.01;exitY=0.262;exitDx=0;exitDy=0;exitPerimeter=0;" edge="1" parent="1" source="linHKC7ylbopi5ncw5sV-26" target="linHKC7ylbopi5ncw5sV-4">
          <mxGeometry relative="1" as="geometry">
            <mxPoint x="841" y="759" as="sourcePoint" />
            <mxPoint x="583" y="719" as="targetPoint" />
            <Array as="points">
              <mxPoint x="765" y="750" />
            </Array>
          </mxGeometry>
        </mxCell>
        <mxCell id="linHKC7ylbopi5ncw5sV-47" value="" style="endArrow=none;html=1;rounded=0;fontSize=12;startSize=8;endSize=8;curved=1;exitX=0.045;exitY=0.719;exitDx=0;exitDy=0;entryX=1;entryY=0;entryDx=0;entryDy=0;exitPerimeter=0;" edge="1" parent="1" source="linHKC7ylbopi5ncw5sV-16" target="linHKC7ylbopi5ncw5sV-4">
          <mxGeometry relative="1" as="geometry">
            <mxPoint x="524" y="635" as="sourcePoint" />
            <mxPoint x="684" y="635" as="targetPoint" />
            <Array as="points" />
          </mxGeometry>
        </mxCell>
        <mxCell id="linHKC7ylbopi5ncw5sV-48" value="" style="endArrow=none;html=1;rounded=0;fontSize=12;startSize=8;endSize=8;curved=1;entryX=0.043;entryY=0.754;entryDx=0;entryDy=0;entryPerimeter=0;exitX=1;exitY=0.5;exitDx=0;exitDy=0;" edge="1" parent="1" source="linHKC7ylbopi5ncw5sV-4" target="linHKC7ylbopi5ncw5sV-13">
          <mxGeometry relative="1" as="geometry">
            <mxPoint x="534" y="645" as="sourcePoint" />
            <mxPoint x="694" y="645" as="targetPoint" />
          </mxGeometry>
        </mxCell>
        <mxCell id="linHKC7ylbopi5ncw5sV-49" value="" style="endArrow=none;html=1;rounded=0;fontSize=12;startSize=8;endSize=8;curved=1;entryX=0;entryY=0.5;entryDx=0;entryDy=0;exitX=1;exitY=0.75;exitDx=0;exitDy=0;" edge="1" parent="1" source="linHKC7ylbopi5ncw5sV-4" target="linHKC7ylbopi5ncw5sV-27">
          <mxGeometry relative="1" as="geometry">
            <mxPoint x="544" y="655" as="sourcePoint" />
            <mxPoint x="704" y="655" as="targetPoint" />
          </mxGeometry>
        </mxCell>
        <mxCell id="linHKC7ylbopi5ncw5sV-51" style="edgeStyle=none;curved=1;rounded=0;orthogonalLoop=1;jettySize=auto;html=1;exitX=0.5;exitY=1;exitDx=0;exitDy=0;fontSize=12;startSize=8;endSize=8;" edge="1" parent="1" source="linHKC7ylbopi5ncw5sV-23" target="linHKC7ylbopi5ncw5sV-23">
          <mxGeometry relative="1" as="geometry" />
        </mxCell>
        <mxCell id="linHKC7ylbopi5ncw5sV-56" value="" style="endArrow=none;html=1;rounded=0;fontSize=12;startSize=8;endSize=8;curved=1;entryX=0;entryY=0.5;entryDx=0;entryDy=0;exitX=1;exitY=0.5;exitDx=0;exitDy=0;" edge="1" parent="1" source="linHKC7ylbopi5ncw5sV-24" target="linHKC7ylbopi5ncw5sV-3">
          <mxGeometry relative="1" as="geometry">
            <mxPoint x="-183" y="1284" as="sourcePoint" />
            <mxPoint x="5" y="1178" as="targetPoint" />
            <Array as="points" />
          </mxGeometry>
        </mxCell>
        <mxCell id="linHKC7ylbopi5ncw5sV-57" value="" style="endArrow=none;html=1;rounded=0;fontSize=12;startSize=8;endSize=8;curved=1;entryX=0.123;entryY=0.994;entryDx=0;entryDy=0;entryPerimeter=0;exitX=1;exitY=0.5;exitDx=0;exitDy=0;" edge="1" parent="1" source="linHKC7ylbopi5ncw5sV-25" target="linHKC7ylbopi5ncw5sV-3">
          <mxGeometry relative="1" as="geometry">
            <mxPoint x="-219" y="1107" as="sourcePoint" />
            <mxPoint x="-59" y="1107" as="targetPoint" />
          </mxGeometry>
        </mxCell>
        <mxCell id="linHKC7ylbopi5ncw5sV-58" value="" style="endArrow=none;html=1;rounded=0;fontSize=12;startSize=8;endSize=8;curved=1;exitX=1;exitY=0;exitDx=0;exitDy=0;" edge="1" parent="1" source="linHKC7ylbopi5ncw5sV-23">
          <mxGeometry relative="1" as="geometry">
            <mxPoint x="-162" y="1317" as="sourcePoint" />
            <mxPoint x="-7" y="1262" as="targetPoint" />
          </mxGeometry>
        </mxCell>
        <mxCell id="linHKC7ylbopi5ncw5sV-59" value="" style="endArrow=none;html=1;rounded=0;fontSize=12;startSize=8;endSize=8;curved=1;exitX=0.711;exitY=0.899;exitDx=0;exitDy=0;exitPerimeter=0;entryX=0.174;entryY=0.046;entryDx=0;entryDy=0;entryPerimeter=0;" edge="1" parent="1" source="linHKC7ylbopi5ncw5sV-15" target="linHKC7ylbopi5ncw5sV-6">
          <mxGeometry relative="1" as="geometry">
            <mxPoint x="472" y="390" as="sourcePoint" />
            <mxPoint x="632" y="390" as="targetPoint" />
          </mxGeometry>
        </mxCell>
        <mxCell id="linHKC7ylbopi5ncw5sV-60" value="" style="endArrow=none;html=1;rounded=0;fontSize=12;startSize=8;endSize=8;curved=1;entryX=0.31;entryY=1.025;entryDx=0;entryDy=0;exitX=0.75;exitY=0;exitDx=0;exitDy=0;entryPerimeter=0;" edge="1" parent="1" source="linHKC7ylbopi5ncw5sV-6" target="linHKC7ylbopi5ncw5sV-19">
          <mxGeometry relative="1" as="geometry">
            <mxPoint x="565" y="316" as="sourcePoint" />
            <mxPoint x="632" y="390" as="targetPoint" />
          </mxGeometry>
        </mxCell>
        <mxCell id="linHKC7ylbopi5ncw5sV-61" value="" style="endArrow=none;html=1;rounded=0;fontSize=12;startSize=8;endSize=8;curved=1;exitX=0.5;exitY=1;exitDx=0;exitDy=0;" edge="1" parent="1" source="linHKC7ylbopi5ncw5sV-17">
          <mxGeometry relative="1" as="geometry">
            <mxPoint x="472" y="390" as="sourcePoint" />
            <mxPoint x="602" y="231" as="targetPoint" />
          </mxGeometry>
        </mxCell>
        <mxCell id="linHKC7ylbopi5ncw5sV-62" value="" style="endArrow=none;html=1;rounded=0;fontSize=12;startSize=8;endSize=8;curved=1;exitX=0.766;exitY=0.922;exitDx=0;exitDy=0;entryX=0;entryY=0.25;entryDx=0;entryDy=0;exitPerimeter=0;" edge="1" parent="1" source="linHKC7ylbopi5ncw5sV-18" target="linHKC7ylbopi5ncw5sV-5">
          <mxGeometry relative="1" as="geometry">
            <mxPoint x="-51" y="543" as="sourcePoint" />
            <mxPoint x="-17" y="718" as="targetPoint" />
          </mxGeometry>
        </mxCell>
        <mxCell id="linHKC7ylbopi5ncw5sV-63" value="" style="endArrow=none;html=1;rounded=0;fontSize=12;startSize=8;endSize=8;curved=1;entryX=0;entryY=0.5;entryDx=0;entryDy=0;exitX=0.89;exitY=0.625;exitDx=0;exitDy=0;exitPerimeter=0;" edge="1" parent="1" source="linHKC7ylbopi5ncw5sV-29" target="linHKC7ylbopi5ncw5sV-5">
          <mxGeometry relative="1" as="geometry">
            <mxPoint x="-51" y="543" as="sourcePoint" />
            <mxPoint x="109" y="543" as="targetPoint" />
          </mxGeometry>
        </mxCell>
        <mxCell id="linHKC7ylbopi5ncw5sV-65" value="" style="endArrow=none;html=1;rounded=0;fontSize=12;startSize=8;endSize=8;curved=1;exitX=0.138;exitY=1.031;exitDx=0;exitDy=0;exitPerimeter=0;entryX=1;entryY=0.5;entryDx=0;entryDy=0;" edge="1" parent="1" source="linHKC7ylbopi5ncw5sV-5" target="linHKC7ylbopi5ncw5sV-30">
          <mxGeometry relative="1" as="geometry">
            <mxPoint x="-51" y="543" as="sourcePoint" />
            <mxPoint x="-177" y="953" as="targetPoint" />
          </mxGeometry>
        </mxCell>
        <mxCell id="linHKC7ylbopi5ncw5sV-66" value="" style="endArrow=none;html=1;rounded=0;fontSize=12;startSize=8;endSize=8;curved=1;entryX=0;entryY=0.75;entryDx=0;entryDy=0;exitX=0.988;exitY=0.291;exitDx=0;exitDy=0;exitPerimeter=0;" edge="1" parent="1" source="linHKC7ylbopi5ncw5sV-31" target="linHKC7ylbopi5ncw5sV-5">
          <mxGeometry relative="1" as="geometry">
            <mxPoint x="-51" y="543" as="sourcePoint" />
            <mxPoint x="100" y="549" as="targetPoint" />
          </mxGeometry>
        </mxCell>
        <mxCell id="linHKC7ylbopi5ncw5sV-67" value="" style="endArrow=none;html=1;rounded=0;fontSize=12;startSize=8;endSize=8;curved=1;exitX=1;exitY=0.5;exitDx=0;exitDy=0;entryX=0;entryY=1;entryDx=0;entryDy=0;" edge="1" parent="1" source="linHKC7ylbopi5ncw5sV-28" target="linHKC7ylbopi5ncw5sV-5">
          <mxGeometry relative="1" as="geometry">
            <mxPoint x="-51" y="837" as="sourcePoint" />
            <mxPoint x="109" y="837" as="targetPoint" />
          </mxGeometry>
        </mxCell>
        <mxCell id="linHKC7ylbopi5ncw5sV-69" value="" style="endArrow=none;html=1;rounded=0;fontSize=12;startSize=8;endSize=8;curved=1;exitX=1;exitY=0.5;exitDx=0;exitDy=0;entryX=0.034;entryY=0.13;entryDx=0;entryDy=0;entryPerimeter=0;" edge="1" parent="1" source="linHKC7ylbopi5ncw5sV-22" target="linHKC7ylbopi5ncw5sV-3">
          <mxGeometry relative="1" as="geometry">
            <mxPoint x="62" y="1027" as="sourcePoint" />
            <mxPoint x="222" y="1027" as="targetPoint" />
          </mxGeometry>
        </mxCell>
        <mxCell id="linHKC7ylbopi5ncw5sV-71" value="memesan" style="shape=rhombus;perimeter=rhombusPerimeter;whiteSpace=wrap;html=1;align=center;" vertex="1" parent="1">
          <mxGeometry x="-20" y="465" width="120" height="60" as="geometry" />
        </mxCell>
        <mxCell id="linHKC7ylbopi5ncw5sV-73" value="melihat" style="shape=rhombus;perimeter=rhombusPerimeter;whiteSpace=wrap;html=1;align=center;" vertex="1" parent="1">
          <mxGeometry x="295" y="239" width="120" height="60" as="geometry" />
        </mxCell>
        <mxCell id="linHKC7ylbopi5ncw5sV-77" value="id_admin" style="ellipse;whiteSpace=wrap;html=1;align=center;fontStyle=4;" vertex="1" parent="1">
          <mxGeometry x="1273" y="381" width="120" height="54" as="geometry" />
        </mxCell>
        <mxCell id="linHKC7ylbopi5ncw5sV-78" value="" style="endArrow=none;html=1;rounded=0;fontSize=12;startSize=8;endSize=8;curved=1;entryX=0;entryY=0.5;entryDx=0;entryDy=0;exitX=1;exitY=0;exitDx=0;exitDy=0;" edge="1" parent="1" source="linHKC7ylbopi5ncw5sV-2" target="linHKC7ylbopi5ncw5sV-33">
          <mxGeometry relative="1" as="geometry">
            <mxPoint x="910" y="220" as="sourcePoint" />
            <mxPoint x="1070" y="220" as="targetPoint" />
          </mxGeometry>
        </mxCell>
        <mxCell id="linHKC7ylbopi5ncw5sV-79" value="" style="endArrow=none;html=1;rounded=0;fontSize=12;startSize=8;endSize=8;curved=1;entryX=0.029;entryY=0.34;entryDx=0;entryDy=0;entryPerimeter=0;exitX=1;exitY=0.75;exitDx=0;exitDy=0;" edge="1" parent="1" source="linHKC7ylbopi5ncw5sV-2" target="linHKC7ylbopi5ncw5sV-77">
          <mxGeometry relative="1" as="geometry">
            <mxPoint x="910" y="220" as="sourcePoint" />
            <mxPoint x="1070" y="220" as="targetPoint" />
          </mxGeometry>
        </mxCell>
        <mxCell id="linHKC7ylbopi5ncw5sV-80" value="" style="endArrow=none;html=1;rounded=0;fontSize=12;startSize=8;endSize=8;curved=1;entryX=0;entryY=0.5;entryDx=0;entryDy=0;exitX=1;exitY=0.5;exitDx=0;exitDy=0;" edge="1" parent="1" source="linHKC7ylbopi5ncw5sV-2" target="linHKC7ylbopi5ncw5sV-21">
          <mxGeometry relative="1" as="geometry">
            <mxPoint x="910" y="220" as="sourcePoint" />
            <mxPoint x="1070" y="220" as="targetPoint" />
          </mxGeometry>
        </mxCell>
        <mxCell id="linHKC7ylbopi5ncw5sV-81" value="" style="endArrow=none;html=1;rounded=0;fontSize=12;startSize=8;endSize=8;curved=1;entryX=0;entryY=0.5;entryDx=0;entryDy=0;exitX=1;exitY=0.25;exitDx=0;exitDy=0;" edge="1" parent="1" source="linHKC7ylbopi5ncw5sV-2" target="linHKC7ylbopi5ncw5sV-34">
          <mxGeometry relative="1" as="geometry">
            <mxPoint x="910" y="220" as="sourcePoint" />
            <mxPoint x="1070" y="220" as="targetPoint" />
          </mxGeometry>
        </mxCell>
        <mxCell id="linHKC7ylbopi5ncw5sV-82" value="" style="endArrow=none;html=1;rounded=0;dashed=1;dashPattern=1 2;fontSize=12;startSize=8;endSize=8;curved=1;entryX=0.5;entryY=1;entryDx=0;entryDy=0;" edge="1" parent="1" source="linHKC7ylbopi5ncw5sV-71" target="linHKC7ylbopi5ncw5sV-7">
          <mxGeometry relative="1" as="geometry">
            <mxPoint x="-180" y="749" as="sourcePoint" />
            <mxPoint x="-20" y="749" as="targetPoint" />
          </mxGeometry>
        </mxCell>
        <mxCell id="linHKC7ylbopi5ncw5sV-83" value="1" style="resizable=0;html=1;whiteSpace=wrap;align=right;verticalAlign=bottom;" connectable="0" vertex="1" parent="linHKC7ylbopi5ncw5sV-82">
          <mxGeometry x="1" relative="1" as="geometry" />
        </mxCell>
        <mxCell id="linHKC7ylbopi5ncw5sV-84" value="" style="endArrow=none;html=1;rounded=0;fontSize=12;startSize=8;endSize=8;curved=1;exitX=0.5;exitY=1;exitDx=0;exitDy=0;entryX=0.5;entryY=0;entryDx=0;entryDy=0;" edge="1" parent="1" source="linHKC7ylbopi5ncw5sV-71" target="linHKC7ylbopi5ncw5sV-5">
          <mxGeometry relative="1" as="geometry">
            <mxPoint x="-180" y="749" as="sourcePoint" />
            <mxPoint x="-20" y="749" as="targetPoint" />
          </mxGeometry>
        </mxCell>
        <mxCell id="linHKC7ylbopi5ncw5sV-85" value="N" style="resizable=0;html=1;whiteSpace=wrap;align=right;verticalAlign=bottom;" connectable="0" vertex="1" parent="linHKC7ylbopi5ncw5sV-84">
          <mxGeometry x="1" relative="1" as="geometry" />
        </mxCell>
        <mxCell id="linHKC7ylbopi5ncw5sV-86" value="" style="endArrow=none;html=1;rounded=0;dashed=1;dashPattern=1 2;fontSize=12;startSize=8;endSize=8;curved=1;entryX=0.75;entryY=1;entryDx=0;entryDy=0;" edge="1" parent="1" target="linHKC7ylbopi5ncw5sV-7">
          <mxGeometry relative="1" as="geometry">
            <mxPoint x="308" y="796" as="sourcePoint" />
            <mxPoint x="-20" y="749" as="targetPoint" />
          </mxGeometry>
        </mxCell>
        <mxCell id="linHKC7ylbopi5ncw5sV-87" value="1" style="resizable=0;html=1;whiteSpace=wrap;align=right;verticalAlign=bottom;" connectable="0" vertex="1" parent="linHKC7ylbopi5ncw5sV-86">
          <mxGeometry x="1" relative="1" as="geometry" />
        </mxCell>
        <mxCell id="linHKC7ylbopi5ncw5sV-88" value="mengelola" style="shape=rhombus;perimeter=rhombusPerimeter;whiteSpace=wrap;html=1;align=center;" vertex="1" parent="1">
          <mxGeometry x="250" y="795" width="120" height="60" as="geometry" />
        </mxCell>
        <mxCell id="linHKC7ylbopi5ncw5sV-89" value="" style="endArrow=none;html=1;rounded=0;dashed=1;dashPattern=1 2;fontSize=12;startSize=8;endSize=8;curved=1;entryX=0.5;entryY=0;entryDx=0;entryDy=0;exitX=0.5;exitY=1;exitDx=0;exitDy=0;" edge="1" parent="1" source="linHKC7ylbopi5ncw5sV-88" target="linHKC7ylbopi5ncw5sV-3">
          <mxGeometry relative="1" as="geometry">
            <mxPoint x="-180" y="749" as="sourcePoint" />
            <mxPoint x="-20" y="749" as="targetPoint" />
          </mxGeometry>
        </mxCell>
        <mxCell id="linHKC7ylbopi5ncw5sV-90" value="1" style="resizable=0;html=1;whiteSpace=wrap;align=right;verticalAlign=bottom;" connectable="0" vertex="1" parent="linHKC7ylbopi5ncw5sV-89">
          <mxGeometry x="1" relative="1" as="geometry" />
        </mxCell>
        <mxCell id="linHKC7ylbopi5ncw5sV-91" value="" style="endArrow=none;html=1;rounded=0;dashed=1;dashPattern=1 2;fontSize=12;startSize=8;endSize=8;curved=1;entryX=1;entryY=0.5;entryDx=0;entryDy=0;exitX=0;exitY=0.5;exitDx=0;exitDy=0;" edge="1" parent="1" source="linHKC7ylbopi5ncw5sV-73" target="linHKC7ylbopi5ncw5sV-7">
          <mxGeometry relative="1" as="geometry">
            <mxPoint x="230" y="264" as="sourcePoint" />
            <mxPoint x="578" y="473" as="targetPoint" />
          </mxGeometry>
        </mxCell>
        <mxCell id="linHKC7ylbopi5ncw5sV-92" value="1" style="resizable=0;html=1;whiteSpace=wrap;align=right;verticalAlign=bottom;" connectable="0" vertex="1" parent="linHKC7ylbopi5ncw5sV-91">
          <mxGeometry x="1" relative="1" as="geometry" />
        </mxCell>
        <mxCell id="linHKC7ylbopi5ncw5sV-93" value="" style="endArrow=none;html=1;rounded=0;dashed=1;dashPattern=1 2;fontSize=12;startSize=8;endSize=8;curved=1;entryX=0;entryY=0.5;entryDx=0;entryDy=0;exitX=1;exitY=0.5;exitDx=0;exitDy=0;" edge="1" parent="1" source="linHKC7ylbopi5ncw5sV-73" target="linHKC7ylbopi5ncw5sV-6">
          <mxGeometry relative="1" as="geometry">
            <mxPoint x="418" y="473" as="sourcePoint" />
            <mxPoint x="578" y="473" as="targetPoint" />
          </mxGeometry>
        </mxCell>
        <mxCell id="linHKC7ylbopi5ncw5sV-94" value="N" style="resizable=0;html=1;whiteSpace=wrap;align=right;verticalAlign=bottom;" connectable="0" vertex="1" parent="linHKC7ylbopi5ncw5sV-93">
          <mxGeometry x="1" relative="1" as="geometry" />
        </mxCell>
        <mxCell id="linHKC7ylbopi5ncw5sV-95" value="id_seblak" style="ellipse;whiteSpace=wrap;html=1;align=center;fontStyle=4;" vertex="1" parent="1">
          <mxGeometry x="740" y="95" width="100" height="40" as="geometry" />
        </mxCell>
        <mxCell id="linHKC7ylbopi5ncw5sV-96" value="" style="endArrow=none;html=1;rounded=0;fontSize=12;startSize=8;endSize=8;curved=1;entryX=0;entryY=1;entryDx=0;entryDy=0;exitX=1;exitY=0;exitDx=0;exitDy=0;" edge="1" parent="1" source="linHKC7ylbopi5ncw5sV-6" target="linHKC7ylbopi5ncw5sV-95">
          <mxGeometry relative="1" as="geometry">
            <mxPoint x="420" y="363" as="sourcePoint" />
            <mxPoint x="580" y="363" as="targetPoint" />
          </mxGeometry>
        </mxCell>
        <mxCell id="linHKC7ylbopi5ncw5sV-97" value="" style="endArrow=none;html=1;rounded=0;dashed=1;dashPattern=1 2;fontSize=12;startSize=8;endSize=8;curved=1;entryX=1;entryY=0.75;entryDx=0;entryDy=0;exitX=0;exitY=0.5;exitDx=0;exitDy=0;" edge="1" parent="1" source="linHKC7ylbopi5ncw5sV-99" target="linHKC7ylbopi5ncw5sV-7">
          <mxGeometry relative="1" as="geometry">
            <mxPoint x="331" y="480" as="sourcePoint" />
            <mxPoint x="348" y="586" as="targetPoint" />
          </mxGeometry>
        </mxCell>
        <mxCell id="linHKC7ylbopi5ncw5sV-98" value="1" style="resizable=0;html=1;whiteSpace=wrap;align=right;verticalAlign=bottom;" connectable="0" vertex="1" parent="linHKC7ylbopi5ncw5sV-97">
          <mxGeometry x="1" relative="1" as="geometry" />
        </mxCell>
        <mxCell id="linHKC7ylbopi5ncw5sV-99" value="memeriksa" style="shape=rhombus;perimeter=rhombusPerimeter;whiteSpace=wrap;html=1;align=center;" vertex="1" parent="1">
          <mxGeometry x="329" y="454" width="120" height="60" as="geometry" />
        </mxCell>
        <mxCell id="linHKC7ylbopi5ncw5sV-100" value="" style="endArrow=none;html=1;rounded=0;dashed=1;dashPattern=1 2;fontSize=12;startSize=8;endSize=8;curved=1;entryX=0;entryY=0;entryDx=0;entryDy=0;exitX=0.5;exitY=1;exitDx=0;exitDy=0;" edge="1" parent="1" source="linHKC7ylbopi5ncw5sV-99" target="linHKC7ylbopi5ncw5sV-4">
          <mxGeometry relative="1" as="geometry">
            <mxPoint x="188" y="586" as="sourcePoint" />
            <mxPoint x="348" y="586" as="targetPoint" />
          </mxGeometry>
        </mxCell>
        <mxCell id="linHKC7ylbopi5ncw5sV-101" value="1" style="resizable=0;html=1;whiteSpace=wrap;align=right;verticalAlign=bottom;" connectable="0" vertex="1" parent="linHKC7ylbopi5ncw5sV-100">
          <mxGeometry x="1" relative="1" as="geometry" />
        </mxCell>
        <mxCell id="linHKC7ylbopi5ncw5sV-102" value="mengelola" style="shape=rhombus;perimeter=rhombusPerimeter;whiteSpace=wrap;html=1;align=center;" vertex="1" parent="1">
          <mxGeometry x="832" y="247" width="120" height="60" as="geometry" />
        </mxCell>
        <mxCell id="linHKC7ylbopi5ncw5sV-103" value="" style="endArrow=none;html=1;rounded=0;dashed=1;dashPattern=1 2;fontSize=12;startSize=8;endSize=8;curved=1;entryX=1.008;entryY=0.63;entryDx=0;entryDy=0;entryPerimeter=0;exitX=0;exitY=0.5;exitDx=0;exitDy=0;" edge="1" parent="1" source="linHKC7ylbopi5ncw5sV-102" target="linHKC7ylbopi5ncw5sV-6">
          <mxGeometry relative="1" as="geometry">
            <mxPoint x="539" y="455" as="sourcePoint" />
            <mxPoint x="699" y="455" as="targetPoint" />
          </mxGeometry>
        </mxCell>
        <mxCell id="linHKC7ylbopi5ncw5sV-104" value="N" style="resizable=0;html=1;whiteSpace=wrap;align=right;verticalAlign=bottom;" connectable="0" vertex="1" parent="linHKC7ylbopi5ncw5sV-103">
          <mxGeometry x="1" relative="1" as="geometry" />
        </mxCell>
        <mxCell id="linHKC7ylbopi5ncw5sV-105" value="" style="endArrow=none;html=1;rounded=0;dashed=1;dashPattern=1 2;fontSize=12;startSize=8;endSize=8;curved=1;exitX=1;exitY=0.5;exitDx=0;exitDy=0;entryX=0;entryY=0.5;entryDx=0;entryDy=0;" edge="1" parent="1" source="linHKC7ylbopi5ncw5sV-102" target="linHKC7ylbopi5ncw5sV-2">
          <mxGeometry relative="1" as="geometry">
            <mxPoint x="539" y="455" as="sourcePoint" />
            <mxPoint x="699" y="455" as="targetPoint" />
          </mxGeometry>
        </mxCell>
        <mxCell id="linHKC7ylbopi5ncw5sV-106" value="1" style="resizable=0;html=1;whiteSpace=wrap;align=right;verticalAlign=bottom;" connectable="0" vertex="1" parent="linHKC7ylbopi5ncw5sV-105">
          <mxGeometry x="1" relative="1" as="geometry" />
        </mxCell>
      </root>
    </mxGraphModel>
  </diagram>
</mxfile>
